<?xml version="1.0" encoding="UTF-8" standalone="no"?><!DOCTYPE svg PUBLIC "-//W3C//DTD SVG 1.1//EN" "http://www.w3.org/Graphics/SVG/1.1/DTD/svg11.dtd"><svg width="100%" height="100%" viewBox="0 0 2488 2163" version="1.1" xmlns="http://www.w3.org/2000/svg" xmlns:xlink="http://www.w3.org/1999/xlink" xml:space="preserve" xmlns:serif="http://www.serif.com/" style="fill-rule:evenodd;clip-rule:evenodd;stroke-linecap:round;stroke-linejoin:round;stroke-miterlimit:1.5;"><path d="M333.224,299.131l-0,1546.73l1805,-0l0,-874.047l-172.182,194.07l-131.326,48.153l-97.765,32.102l-129.867,80.255l-102.142,24.806l-105.061,-49.612l-102.142,-32.102l-87.551,36.479l-72.959,33.561l-99.224,-1.459l-94.846,-52.53l-83.173,-2.919l-113.816,32.102l-65.744,-37.969l-46.613,-83.142l-78.795,-213.04l-64.204,-178.02l-70.041,-221.795l-52.53,-202.825l-35.02,-78.796" style="fill:#22c55e;fill-opacity:0.5;"/><path d="M328.846,287.458l293.295,856.537c-0,-0 58.367,300.59 250.978,129.866c68.581,-40.857 159.05,75.878 221.795,84.633c106.52,-7.296 83.173,-56.908 207.203,-84.633c99.224,-5.836 112.357,61.286 227.632,86.092c121.111,-8.755 45.234,-35.02 230.55,-124.03c204.284,-8.755 259.733,-118.194 259.733,-118.194l122.571,-141.54" style="fill:none;stroke:#22c55e;stroke-width:70.83px;"/></svg>