<?xml version="1.0" encoding="UTF-8" standalone="no"?><!DOCTYPE svg PUBLIC "-//W3C//DTD SVG 1.1//EN" "http://www.w3.org/Graphics/SVG/1.1/DTD/svg11.dtd"><svg width="100%" height="100%" viewBox="0 0 2325 941" version="1.1" xmlns="http://www.w3.org/2000/svg" xmlns:xlink="http://www.w3.org/1999/xlink" xml:space="preserve" xmlns:serif="http://www.serif.com/" style="fill-rule:evenodd;clip-rule:evenodd;stroke-linejoin:round;stroke-miterlimit:2;"><g><rect x="397.272" y="665.547" width="4.476" height="101.169" style="fill:#525252;"/><rect x="450.695" y="666.854" width="4.476" height="52.491" style="fill:#525252;"/><rect x="504.119" y="665.665" width="4.476" height="52.491" style="fill:#525252;"/><rect x="557.543" y="665.665" width="4.476" height="52.491" style="fill:#525252;"/><rect x="610.966" y="665.665" width="4.476" height="52.491" style="fill:#525252;"/><rect x="664.39" y="665.665" width="4.476" height="52.491" style="fill:#525252;"/><rect x="717.814" y="665.665" width="4.476" height="52.491" style="fill:#525252;"/><rect x="771.237" y="665.665" width="4.476" height="52.491" style="fill:#525252;"/><rect x="824.661" y="665.665" width="4.476" height="52.491" style="fill:#525252;"/><rect x="878.085" y="665.665" width="4.476" height="101.169" style="fill:#525252;"/><rect x="931.508" y="665.665" width="4.476" height="53.68" style="fill:#525252;"/><rect x="984.932" y="665.665" width="4.476" height="53.68" style="fill:#525252;"/><rect x="1038.36" y="665.665" width="4.476" height="53.68" style="fill:#525252;"/><rect x="1091.78" y="665.665" width="4.476" height="53.68" style="fill:#525252;"/><rect x="1145.2" y="665.665" width="4.476" height="53.68" style="fill:#525252;"/><rect x="1198.63" y="665.665" width="4.476" height="53.68" style="fill:#525252;"/><rect x="1252.05" y="665.665" width="4.476" height="53.68" style="fill:#525252;"/><rect x="1305.47" y="665.665" width="4.476" height="53.68" style="fill:#525252;"/><rect x="1358.9" y="665.665" width="4.476" height="101.169" style="fill:#525252;"/><rect x="1412.32" y="665.665" width="4.476" height="53.68" style="fill:#525252;"/><rect x="1465.75" y="665.665" width="4.476" height="53.68" style="fill:#525252;"/><rect x="1519.17" y="665.665" width="4.476" height="53.68" style="fill:#525252;"/><rect x="1572.59" y="665.665" width="4.476" height="53.68" style="fill:#525252;"/><rect x="1626.02" y="665.665" width="4.476" height="53.68" style="fill:#525252;"/><rect x="1679.44" y="665.665" width="4.476" height="53.68" style="fill:#525252;"/><rect x="1732.86" y="665.665" width="4.476" height="53.68" style="fill:#525252;"/><rect x="1786.29" y="665.665" width="4.476" height="53.68" style="fill:#525252;"/><rect x="1839.71" y="665.665" width="4.476" height="101.169" style="fill:#525252;"/><rect x="1893.13" y="665.665" width="4.476" height="53.68" style="fill:#525252;"/><rect x="1946.56" y="665.665" width="4.476" height="53.68" style="fill:#525252;"/><rect x="1999.98" y="665.665" width="4.476" height="53.68" style="fill:#525252;"/><rect x="2053.41" y="665.665" width="4.476" height="53.68" style="fill:#525252;"/><rect x="2106.83" y="665.665" width="4.476" height="53.68" style="fill:#525252;"/><rect x="2160.25" y="665.665" width="4.476" height="53.68" style="fill:#525252;"/><rect x="2213.68" y="665.665" width="4.476" height="53.68" style="fill:#525252;"/><rect x="2267.1" y="665.665" width="4.476" height="53.68" style="fill:#525252;"/><rect x="2320.52" y="665.665" width="4.476" height="101.169" style="fill:#525252;"/><rect x="376.995" y="84.786" width="1939.09" height="4.476" style="fill:#525252;"/><rect x="376.995" y="229.976" width="1948.01" height="4.476" style="fill:#525252;"/><rect x="376.995" y="375.167" width="1948.01" height="4.476" style="fill:#525252;"/><rect x="376.995" y="520.357" width="1948.01" height="4.476" style="fill:#525252;"/><path d="M379.234,667.785l1943.53,0" style="fill:none;"/><rect x="376.995" y="665.547" width="1948.01" height="4.476" style="fill:#525252;"/><g><path d="M20.228,110.57l19.159,-18.443c8.505,-8.147 10.296,-13.608 10.296,-19.696c-0,-10.743 -8.416,-17.458 -21.487,-17.458c-9.759,-0 -18.085,3.492 -22.919,9.49l6.088,5.282c3.849,-4.655 9.31,-6.804 16.025,-6.804c8.774,-0 13.34,3.939 13.34,10.385c-0,3.939 -1.254,7.879 -7.879,14.325l-25.515,24.62l-0,6.088l45.033,0l-0,-7.789l-32.141,0Z" style="fill:#a3a3a3;fill-rule:nonzero;"/><path d="M57.83,55.689l-0,18.98l8.595,0l-0,-11.191l28.649,0l-24.8,54.881l9.49,0l25.337,-56.582l-0,-6.088l-47.271,0Z" style="fill:#a3a3a3;fill-rule:nonzero;"/><path d="M114.233,118.896c3.223,0 5.909,-2.596 5.909,-6.177c-0,-3.581 -2.686,-6.088 -5.909,-6.088c-3.313,-0 -6.088,2.507 -6.088,6.088c-0,3.581 2.775,6.177 6.088,6.177Z" style="fill:#a3a3a3;fill-rule:nonzero;"/><path d="M146.553,80.668l-6.984,-0l1.701,-17.19l27.844,0l-0,-7.789l-35.364,0l-3.313,32.768l14.235,-0c14.504,-0 18.98,4.386 18.98,11.459c0,6.804 -5.371,11.191 -14.861,11.191c-7.61,0 -14.593,-2.775 -18.801,-6.714l-4.119,7.072c5.372,4.745 14.146,7.61 23.009,7.61c16.026,0 23.725,-8.684 23.725,-19.517c0,-11.101 -7.341,-18.89 -26.052,-18.89Z" style="fill:#a3a3a3;fill-rule:nonzero;"/><path d="M221.13,111.107c-11.012,0 -19.697,-6.177 -23.009,-15.399l28.38,0l0,-5.013l-29.634,-0c-0.179,-1.164 -0.268,-2.418 -0.268,-3.671c-0,-1.253 0.089,-2.507 0.268,-3.671l29.634,0l0,-5.013l-28.38,-0c3.312,-9.222 11.997,-15.399 23.009,-15.399c6.893,-0 12.892,2.328 17.726,7.431l5.73,-5.641c-5.64,-6.446 -14.145,-9.758 -23.904,-9.758c-15.757,-0 -28.291,9.4 -32.051,23.367l-10.206,-0l-0,5.013l9.311,0c-0.09,1.164 -0.179,2.418 -0.179,3.671c-0,1.253 0.089,2.507 0.179,3.671l-9.311,-0l-0,5.013l10.206,0c3.76,13.967 16.294,23.367 32.051,23.367c9.759,0 18.264,-3.402 23.904,-9.848l-5.73,-5.64c-4.834,5.103 -10.833,7.52 -17.726,7.52Z" style="fill:#a3a3a3;fill-rule:nonzero;"/><path d="M301.795,118.359l10.475,0l-28.47,-34.468l26.769,-28.202l-10.207,0l-34.02,35.006l-0,-35.006l-8.953,0l-0,62.67l8.953,0l-0,-16.205l11.459,-11.638l23.994,27.843Z" style="fill:#a3a3a3;fill-rule:nonzero;"/></g><g><path d="M0,346.07l0,7.789l14.145,-0l0,54.881l8.864,-0l-0,-62.67l-23.009,-0Z" style="fill:#a3a3a3;fill-rule:nonzero;"/><path d="M63.744,370.69c-7.789,0 -14.414,2.865 -17.995,8.237c-0.089,-0.806 -0.089,-1.522 -0.089,-2.239c-0,-15.667 8.147,-23.635 20.86,-23.635c4.476,-0 8.773,0.806 11.996,2.954l3.403,-6.983c-4.029,-2.507 -9.67,-3.67 -15.578,-3.67c-17.548,-0 -29.634,11.459 -29.634,32.856c-0,19.965 9.49,31.246 26.321,31.246c12.444,-0 22.203,-7.7 22.203,-19.786c0,-11.549 -9.042,-18.98 -21.487,-18.98Zm-1.074,31.514c-9.669,0 -14.862,-5.64 -14.862,-12.086c0,-6.894 5.909,-12.176 14.414,-12.176c8.774,-0 14.325,4.745 14.325,12.086c-0,7.431 -5.73,12.176 -13.877,12.176Z" style="fill:#a3a3a3;fill-rule:nonzero;"/><path d="M98.75,409.277c3.223,-0 5.909,-2.596 5.909,-6.178c-0,-3.581 -2.686,-6.088 -5.909,-6.088c-3.313,0 -6.088,2.507 -6.088,6.088c-0,3.582 2.775,6.178 6.088,6.178Z" style="fill:#a3a3a3;fill-rule:nonzero;"/><path d="M131.07,371.048l-6.984,0l1.701,-17.189l27.844,-0l-0,-7.789l-35.364,-0l-3.312,32.767l14.235,0c14.503,0 18.98,4.387 18.98,11.46c-0,6.804 -5.372,11.191 -14.862,11.191c-7.61,-0 -14.593,-2.776 -18.801,-6.715l-4.118,7.073c5.371,4.745 14.145,7.61 23.008,7.61c16.026,-0 23.725,-8.684 23.725,-19.517c0,-11.102 -7.341,-18.891 -26.052,-18.891Z" style="fill:#a3a3a3;fill-rule:nonzero;"/><path d="M205.647,401.488c-11.012,-0 -19.696,-6.178 -23.009,-15.399l28.381,-0l-0,-5.014l-29.634,0c-0.179,-1.163 -0.269,-2.417 -0.269,-3.67c0,-1.254 0.09,-2.507 0.269,-3.671l29.634,0l-0,-5.014l-28.381,0c3.313,-9.221 11.997,-15.398 23.009,-15.398c6.894,-0 12.892,2.327 17.727,7.43l5.729,-5.64c-5.64,-6.446 -14.145,-9.758 -23.904,-9.758c-15.757,-0 -28.291,9.4 -32.051,23.366l-10.206,0l-0,5.014l9.311,0c-0.09,1.164 -0.179,2.417 -0.179,3.671c-0,1.253 0.089,2.507 0.179,3.67l-9.311,0l-0,5.014l10.206,-0c3.76,13.966 16.294,23.367 32.051,23.367c9.759,-0 18.264,-3.402 23.904,-9.848l-5.729,-5.641c-4.835,5.104 -10.833,7.521 -17.727,7.521Z" style="fill:#a3a3a3;fill-rule:nonzero;"/><path d="M286.312,408.74l10.475,-0l-28.47,-34.469l26.769,-28.201l-10.206,-0l-34.021,35.005l-0,-35.005l-8.953,-0l-0,62.67l8.953,-0l-0,-16.205l11.459,-11.639l23.994,27.844Z" style="fill:#a3a3a3;fill-rule:nonzero;"/></g><g><path d="M59.357,661.429l-6.983,-0l1.701,-17.19l27.844,0l-0,-7.789l-35.364,0l-3.313,32.768l14.235,-0c14.504,-0 18.98,4.387 18.98,11.459c0,6.805 -5.371,11.192 -14.861,11.192c-7.61,-0 -14.594,-2.776 -18.801,-6.715l-4.119,7.073c5.372,4.745 14.146,7.61 23.009,7.61c16.026,-0 23.725,-8.685 23.725,-19.518c0,-11.101 -7.341,-18.89 -26.053,-18.89Z" style="fill:#a3a3a3;fill-rule:nonzero;"/><path d="M98.75,699.657c3.223,0 5.909,-2.596 5.909,-6.177c-0,-3.581 -2.686,-6.088 -5.909,-6.088c-3.313,0 -6.088,2.507 -6.088,6.088c-0,3.581 2.775,6.177 6.088,6.177Z" style="fill:#a3a3a3;fill-rule:nonzero;"/><path d="M131.07,661.429l-6.984,-0l1.701,-17.19l27.844,0l-0,-7.789l-35.364,0l-3.312,32.768l14.235,-0c14.503,-0 18.98,4.387 18.98,11.459c-0,6.805 -5.372,11.192 -14.862,11.192c-7.61,-0 -14.593,-2.776 -18.801,-6.715l-4.118,7.073c5.371,4.745 14.145,7.61 23.008,7.61c16.026,-0 23.725,-8.685 23.725,-19.518c0,-11.101 -7.341,-18.89 -26.052,-18.89Z" style="fill:#a3a3a3;fill-rule:nonzero;"/><path d="M205.647,691.869c-11.012,-0 -19.696,-6.178 -23.009,-15.399l28.381,-0l-0,-5.014l-29.634,0c-0.179,-1.164 -0.269,-2.417 -0.269,-3.671c0,-1.253 0.09,-2.506 0.269,-3.67l29.634,-0l-0,-5.014l-28.381,0c3.313,-9.221 11.997,-15.399 23.009,-15.399c6.894,0 12.892,2.328 17.727,7.431l5.729,-5.64c-5.64,-6.446 -14.145,-9.759 -23.904,-9.759c-15.757,0 -28.291,9.401 -32.051,23.367l-10.206,0l-0,5.014l9.311,-0c-0.09,1.164 -0.179,2.417 -0.179,3.67c-0,1.254 0.089,2.507 0.179,3.671l-9.311,0l-0,5.014l10.206,-0c3.76,13.966 16.294,23.367 32.051,23.367c9.759,-0 18.264,-3.403 23.904,-9.849l-5.729,-5.64c-4.835,5.103 -10.833,7.521 -17.727,7.521Z" style="fill:#a3a3a3;fill-rule:nonzero;"/><path d="M286.312,699.12l10.475,0l-28.47,-34.468l26.769,-28.202l-10.206,0l-34.021,35.006l-0,-35.006l-8.953,0l-0,62.67l8.953,0l-0,-16.204l11.459,-11.639l23.994,27.843Z" style="fill:#a3a3a3;fill-rule:nonzero;"/></g><g><path d="M327.708,885.652c12.803,0 19.607,-6.894 19.607,-20.86l-0,-42.526l-31.514,-0l-0,7.789l22.651,-0l-0,35.185c-0,8.415 -3.671,12.713 -10.744,12.713c-5.282,-0 -9.669,-2.597 -13.071,-7.431l-5.193,6.088c4.029,5.819 10.833,9.042 18.264,9.042Z" style="fill:#a3a3a3;fill-rule:nonzero;"/><path d="M399.958,837.486l-0,24.531c-0,10.206 -5.73,15.757 -14.683,15.757c-8.147,-0 -12.803,-4.656 -12.803,-13.967l0,-26.321l-8.594,-0l-0,27.306c-0,13.966 8.147,20.681 20.412,20.681c6.715,0 12.624,-2.775 16.115,-7.699l0,7.162l8.147,-0l0,-47.45l-8.594,-0Z" style="fill:#a3a3a3;fill-rule:nonzero;"/><path d="M429.233,828.354c3.402,-0 5.82,-2.507 5.82,-5.73c-0,-3.044 -2.507,-5.461 -5.82,-5.461c-3.312,-0 -5.819,2.507 -5.819,5.64c0,3.134 2.507,5.551 5.819,5.551Zm-4.297,56.582l8.595,-0l-0,-47.45l-8.595,-0l0,47.45Z" style="fill:#a3a3a3;fill-rule:nonzero;"/><path d="M466.567,822.266l-0,7.789l14.145,-0l0,54.881l8.864,-0l-0,-62.67l-23.009,-0Z" style="fill:#a3a3a3;fill-rule:nonzero;"/></g><g><path d="M794.913,885.652c12.802,0 19.606,-6.894 19.606,-20.86l0,-42.526l-31.514,-0l0,7.789l22.651,-0l0,35.185c0,8.415 -3.671,12.713 -10.743,12.713c-5.282,-0 -9.669,-2.597 -13.071,-7.431l-5.193,6.088c4.029,5.819 10.833,9.042 18.264,9.042Z" style="fill:#a3a3a3;fill-rule:nonzero;"/><path d="M867.162,837.486l0,24.531c0,10.206 -5.73,15.757 -14.682,15.757c-8.148,-0 -12.803,-4.656 -12.803,-13.967l-0,-26.321l-8.595,-0l0,27.306c0,13.966 8.147,20.681 20.413,20.681c6.714,0 12.623,-2.775 16.115,-7.699l-0,7.162l8.147,-0l-0,-47.45l-8.595,-0Z" style="fill:#a3a3a3;fill-rule:nonzero;"/><path d="M896.438,828.354c3.402,-0 5.819,-2.507 5.819,-5.73c0,-3.044 -2.506,-5.461 -5.819,-5.461c-3.313,-0 -5.819,2.507 -5.819,5.64c-0,3.134 2.506,5.551 5.819,5.551Zm-4.297,56.582l8.594,-0l0,-47.45l-8.594,-0l-0,47.45Z" style="fill:#a3a3a3;fill-rule:nonzero;"/><path d="M957.675,821.55c-12.444,-0 -22.113,7.699 -22.113,19.786c-0,11.549 8.953,18.98 21.397,18.98c7.789,-0 14.414,-2.776 18.085,-8.237l0,2.238c0,15.668 -8.058,23.636 -20.771,23.636c-4.566,-0 -8.773,-0.806 -12.086,-2.955l-3.402,6.983c4.029,2.507 9.669,3.671 15.578,3.671c17.548,0 29.634,-11.46 29.634,-32.857c-0,-19.965 -9.49,-31.245 -26.322,-31.245Zm0.806,31.514c-8.774,-0 -14.235,-4.745 -14.235,-12.087c0,-7.43 5.641,-12.175 13.788,-12.175c9.758,-0 14.951,5.64 14.951,12.086c-0,6.894 -5.909,12.176 -14.504,12.176Z" style="fill:#a3a3a3;fill-rule:nonzero;"/></g><g><path d="M1257.78,885.652c12.803,0 19.607,-6.894 19.607,-20.86l-0,-42.526l-31.514,-0l-0,7.789l22.651,-0l-0,35.185c-0,8.415 -3.671,12.713 -10.744,12.713c-5.282,-0 -9.669,-2.597 -13.071,-7.431l-5.193,6.088c4.029,5.819 10.833,9.042 18.264,9.042Z" style="fill:#a3a3a3;fill-rule:nonzero;"/><path d="M1330.03,837.486l-0,24.531c-0,10.206 -5.73,15.757 -14.683,15.757c-8.147,-0 -12.803,-4.656 -12.803,-13.967l0,-26.321l-8.594,-0l-0,27.306c-0,13.966 8.147,20.681 20.412,20.681c6.715,0 12.624,-2.775 16.115,-7.699l0,7.162l8.147,-0l0,-47.45l-8.594,-0Z" style="fill:#a3a3a3;fill-rule:nonzero;"/><path d="M1359.3,828.354c3.402,-0 5.819,-2.507 5.819,-5.73c-0,-3.044 -2.507,-5.461 -5.819,-5.461c-3.313,-0 -5.82,2.507 -5.82,5.64c0,3.134 2.507,5.551 5.82,5.551Zm-4.298,56.582l8.595,-0l-0,-47.45l-8.595,-0l0,47.45Z" style="fill:#a3a3a3;fill-rule:nonzero;"/><path d="M1396.63,822.266l-0,7.789l14.145,-0l0,54.881l8.864,-0l-0,-62.67l-23.009,-0Z" style="fill:#a3a3a3;fill-rule:nonzero;"/><path d="M1471.66,852.079c5.73,-2.686 8.863,-7.341 8.863,-13.519c0,-10.475 -9.132,-17.01 -22.74,-17.01c-13.519,-0 -22.561,6.535 -22.561,17.01c-0,6.178 3.044,10.833 8.773,13.519c-7.072,2.686 -11.012,7.968 -11.012,15.13c0,11.37 9.58,18.443 24.8,18.443c15.309,0 24.978,-7.073 24.978,-18.443c0,-7.162 -3.939,-12.355 -11.101,-15.13Zm-13.877,-23.277c8.416,-0 13.966,3.849 13.966,10.116c0,6.178 -5.282,10.027 -13.966,10.027c-8.595,0 -13.698,-3.849 -13.698,-10.027c-0,-6.267 5.282,-10.116 13.698,-10.116Zm-0,49.598c-9.938,0 -15.847,-4.387 -15.847,-11.459c0,-6.894 5.909,-11.191 15.847,-11.191c9.937,-0 16.025,4.297 16.025,11.191c0,7.072 -6.088,11.459 -16.025,11.459Z" style="fill:#a3a3a3;fill-rule:nonzero;"/></g><g><path d="M1731.47,885.652c12.802,0 19.606,-6.894 19.606,-20.86l0,-42.526l-31.514,-0l0,7.789l22.651,-0l0,35.185c0,8.415 -3.671,12.713 -10.743,12.713c-5.282,-0 -9.669,-2.597 -13.071,-7.431l-5.193,6.088c4.029,5.819 10.833,9.042 18.264,9.042Z" style="fill:#a3a3a3;fill-rule:nonzero;"/><path d="M1803.72,837.486l0,24.531c0,10.206 -5.73,15.757 -14.682,15.757c-8.148,-0 -12.803,-4.656 -12.803,-13.967l-0,-26.321l-8.595,-0l0,27.306c0,13.966 8.147,20.681 20.413,20.681c6.714,0 12.623,-2.775 16.115,-7.699l-0,7.162l8.147,-0l-0,-47.45l-8.595,-0Z" style="fill:#a3a3a3;fill-rule:nonzero;"/><path d="M1833,828.354c3.402,-0 5.819,-2.507 5.819,-5.73c0,-3.044 -2.506,-5.461 -5.819,-5.461c-3.313,-0 -5.819,2.507 -5.819,5.64c-0,3.134 2.506,5.551 5.819,5.551Zm-4.297,56.582l8.594,-0l0,-47.45l-8.594,-0l-0,47.45Z" style="fill:#a3a3a3;fill-rule:nonzero;"/><path d="M1885.82,877.147l19.159,-18.443c8.505,-8.147 10.296,-13.608 10.296,-19.696c-0,-10.744 -8.416,-17.458 -21.487,-17.458c-9.759,-0 -18.085,3.491 -22.919,9.49l6.087,5.282c3.85,-4.656 9.311,-6.804 16.026,-6.804c8.774,-0 13.34,3.939 13.34,10.385c-0,3.939 -1.254,7.879 -7.879,14.325l-25.515,24.62l-0,6.088l45.032,-0l0,-7.789l-32.14,-0Z" style="fill:#a3a3a3;fill-rule:nonzero;"/><path d="M1923.42,822.266l-0,18.98l8.594,-0l0,-11.191l28.65,-0l-24.8,54.881l9.49,-0l25.337,-56.582l-0,-6.088l-47.271,-0Z" style="fill:#a3a3a3;fill-rule:nonzero;"/></g><g><path d="M2109.68,885.652c12.803,0 19.607,-6.894 19.607,-20.86l-0,-42.526l-31.514,-0l-0,7.789l22.65,-0l0,35.185c0,8.415 -3.67,12.713 -10.743,12.713c-5.282,-0 -9.669,-2.597 -13.071,-7.431l-5.193,6.088c4.029,5.819 10.833,9.042 18.264,9.042Z" style="fill:#a3a3a3;fill-rule:nonzero;"/><path d="M2181.93,837.486l-0,24.531c-0,10.206 -5.73,15.757 -14.683,15.757c-8.147,-0 -12.803,-4.656 -12.803,-13.967l0,-26.321l-8.594,-0l-0,27.306c-0,13.966 8.147,20.681 20.412,20.681c6.715,0 12.624,-2.775 16.115,-7.699l0,7.162l8.147,-0l0,-47.45l-8.594,-0Z" style="fill:#a3a3a3;fill-rule:nonzero;"/><path d="M2211.21,828.354c3.402,-0 5.82,-2.507 5.82,-5.73c-0,-3.044 -2.507,-5.461 -5.82,-5.461c-3.312,-0 -5.819,2.507 -5.819,5.64c-0,3.134 2.507,5.551 5.819,5.551Zm-4.297,56.582l8.595,-0l-0,-47.45l-8.595,-0l-0,47.45Z" style="fill:#a3a3a3;fill-rule:nonzero;"/><path d="M2276.12,848.587l16.384,-20.233l0,-6.088l-41.362,-0l0,7.789l30.171,-0l-15.757,19.338l0,6.267l5.014,0c10.743,0 15.488,4.297 15.488,10.923c0,6.804 -5.372,11.101 -14.772,11.101c-7.7,0 -14.683,-2.775 -18.891,-6.715l-4.118,7.073c5.282,4.745 14.056,7.61 23.009,7.61c15.936,0 23.725,-8.595 23.725,-19.159c-0,-9.669 -6.357,-16.742 -18.891,-17.906Z" style="fill:#a3a3a3;fill-rule:nonzero;"/><path d="M2299.75,822.266l-0,7.789l14.145,-0l0,54.881l8.864,-0l-0,-62.67l-23.009,-0Z" style="fill:#a3a3a3;fill-rule:nonzero;"/></g><path d="M378.419,195.843c0,-8.647 7.021,-15.668 15.668,-15.668c8.647,0 15.667,7.021 15.667,15.668l0,458.274c0,8.647 -7.02,15.667 -15.667,15.667c-8.647,0 -15.668,-7.02 -15.668,-15.667l0,-458.274Z" style="fill:#06b6d4;"/><path d="M433.017,226.782c0,-8.647 7.021,-15.668 15.668,-15.668c8.647,0 15.667,7.021 15.667,15.668l0,427.335c0,8.647 -7.02,15.667 -15.667,15.667c-8.647,0 -15.668,-7.02 -15.668,-15.667l0,-427.335Z" style="fill:#06b6d4;"/><path d="M487.616,275.313c-0,-8.647 7.02,-15.667 15.667,-15.667c8.647,-0 15.668,7.02 15.668,15.667l-0,378.804c-0,8.647 -7.021,15.667 -15.668,15.667c-8.647,0 -15.667,-7.02 -15.667,-15.667l-0,-378.804Z" style="fill:#06b6d4;"/><path d="M542.214,328.698c-0,-8.647 7.02,-15.667 15.667,-15.667c8.647,-0 15.668,7.02 15.668,15.667l-0,325.419c-0,8.647 -7.021,15.667 -15.668,15.667c-8.647,0 -15.667,-7.02 -15.667,-15.667l-0,-325.419Z" style="fill:#06b6d4;"/><path d="M596.812,195.843c-0,-8.647 7.02,-15.668 15.667,-15.668c8.647,0 15.668,7.021 15.668,15.668l-0,458.274c-0,8.647 -7.021,15.667 -15.668,15.667c-8.647,0 -15.667,-7.02 -15.667,-15.667l-0,-458.274Z" style="fill:#06b6d4;"/><path d="M651.41,275.313c-0,-8.647 7.02,-15.667 15.667,-15.667c8.648,-0 15.668,7.02 15.668,15.667l-0,378.804c-0,8.647 -7.02,15.667 -15.668,15.667c-8.647,0 -15.667,-7.02 -15.667,-15.667l-0,-378.804Z" style="fill:#06b6d4;"/><path d="M706.008,305.039c0,-8.647 7.02,-15.667 15.668,-15.667c8.647,-0 15.667,7.02 15.667,15.667l-0,349.078c-0,8.647 -7.02,15.667 -15.667,15.667c-8.648,0 -15.668,-7.02 -15.668,-15.667l0,-349.078Z" style="fill:#06b6d4;"/><path d="M760.606,275.92c0,-8.647 7.021,-15.667 15.668,-15.667c8.647,-0 15.667,7.02 15.667,15.667l0,378.197c0,8.647 -7.02,15.667 -15.667,15.667c-8.647,0 -15.668,-7.02 -15.668,-15.667l0,-378.197Z" style="fill:#06b6d4;"/><path d="M815.204,275.313c0,-8.647 7.021,-15.667 15.668,-15.667c8.647,-0 15.667,7.02 15.667,15.667l0,378.804c0,8.647 -7.02,15.667 -15.667,15.667c-8.647,0 -15.668,-7.02 -15.668,-15.667l0,-378.804Z" style="fill:#06b6d4;"/><path d="M869.802,195.843c0,-8.647 7.021,-15.668 15.668,-15.668c8.647,0 15.667,7.021 15.667,15.668l0,458.274c0,8.647 -7.02,15.667 -15.667,15.667c-8.647,0 -15.668,-7.02 -15.668,-15.667l0,-458.274Z" style="fill:#06b6d4;"/><path d="M924.4,250.441c0,-8.647 7.021,-15.668 15.668,-15.668c8.647,0 15.667,7.021 15.667,15.668l0,403.676c0,8.647 -7.02,15.667 -15.667,15.667c-8.647,0 -15.668,-7.02 -15.668,-15.667l0,-403.676Z" style="fill:#06b6d4;"/><path d="M978.999,136.391c-0,-8.647 7.02,-15.667 15.667,-15.667c8.647,0 15.668,7.02 15.668,15.667l-0,517.726c-0,8.647 -7.021,15.667 -15.668,15.667c-8.647,0 -15.667,-7.02 -15.667,-15.667l-0,-517.726Z" style="fill:#06b6d4;"/><path d="M1033.6,195.843c-0,-8.647 7.02,-15.668 15.667,-15.668c8.647,0 15.668,7.021 15.668,15.668l-0,458.274c-0,8.647 -7.021,15.667 -15.668,15.667c-8.647,0 -15.667,-7.02 -15.667,-15.667l-0,-458.274Z" style="fill:#06b6d4;"/><path d="M1088.19,105.453c-0,-8.648 7.02,-15.668 15.667,-15.668c8.647,0 15.668,7.02 15.668,15.668l-0,548.664c-0,8.647 -7.021,15.667 -15.668,15.667c-8.647,0 -15.667,-7.02 -15.667,-15.667l-0,-548.664Z" style="fill:#06b6d4;"/><path d="M1142.79,336.585c-0,-8.648 7.02,-15.668 15.667,-15.668c8.648,0 15.668,7.02 15.668,15.668l-0,317.532c-0,8.647 -7.02,15.667 -15.668,15.667c-8.647,0 -15.667,-7.02 -15.667,-15.667l-0,-317.532Z" style="fill:#06b6d4;"/><path d="M1197.39,160.051c0,-8.647 7.02,-15.668 15.668,-15.668c8.647,0 15.667,7.021 15.667,15.668l0,494.066c0,8.647 -7.02,15.667 -15.667,15.667c-8.648,0 -15.668,-7.02 -15.668,-15.667l0,-494.066Z" style="fill:#06b6d4;"/><path d="M1251.99,474.9c0,-8.647 7.021,-15.668 15.668,-15.668c8.647,0 15.667,7.021 15.667,15.668l0,179.217c0,8.647 -7.02,15.667 -15.667,15.667c-8.647,0 -15.668,-7.02 -15.668,-15.667l0,-179.217Z" style="fill:#06b6d4;"/><path d="M1306.59,421.515c0,-8.647 7.021,-15.667 15.668,-15.667c8.647,-0 15.667,7.02 15.667,15.667l0,232.602c0,8.647 -7.02,15.667 -15.667,15.667c-8.647,0 -15.668,-7.02 -15.668,-15.667l0,-232.602Z" style="fill:#06b6d4;"/><path d="M1361.18,129.112c0,-8.647 7.021,-15.668 15.668,-15.668c8.647,0 15.667,7.021 15.667,15.668l0,525.005c0,8.647 -7.02,15.667 -15.667,15.667c-8.647,0 -15.668,-7.02 -15.668,-15.667l0,-525.005Z" style="fill:#06b6d4;"/><path d="M1415.78,195.843c-0,-8.647 7.02,-15.668 15.667,-15.668c8.647,0 15.667,7.021 15.667,15.668l0,458.274c0,8.647 -7.02,15.667 -15.667,15.667c-8.647,0 -15.667,-7.02 -15.667,-15.667l-0,-458.274Z" style="fill:#06b6d4;"/><path d="M1470.38,566.503c-0,-8.647 7.02,-15.667 15.667,-15.667c8.647,-0 15.668,7.02 15.668,15.667l-0,87.614c-0,8.647 -7.021,15.667 -15.668,15.667c-8.647,0 -15.667,-7.02 -15.667,-15.667l-0,-87.614Z" style="fill:#06b6d4;"/></g></svg>