<?xml version="1.0" encoding="UTF-8" standalone="no"?><!DOCTYPE svg PUBLIC "-//W3C//DTD SVG 1.1//EN" "http://www.w3.org/Graphics/SVG/1.1/DTD/svg11.dtd"><svg width="100%" height="100%" viewBox="0 0 4638 4638" version="1.1" xmlns="http://www.w3.org/2000/svg" xmlns:xlink="http://www.w3.org/1999/xlink" xml:space="preserve" xmlns:serif="http://www.serif.com/" style="fill-rule:evenodd;clip-rule:evenodd;stroke-linejoin:round;stroke-miterlimit:2;"><path d="M1601.13,2941.89c-60.537,-9.755 -118.646,-37.95 -165.279,-84.584l-835.921,-835.921c-117.933,-117.916 -117.933,-309.391 0,-427.325l427.309,-427.308c117.937,-117.933 309.412,-117.933 427.329,0l19.946,19.946c-164.634,145.625 -242.688,376.913 -181.98,603.475l308.596,1151.72Z" style="fill:#a3a3a3;"/><path d="M3262.69,3353.16c-26.113,13.717 -54.134,24.759 -83.821,32.709l-783.158,209.862c-216.113,57.9 -438.596,-70.537 -496.496,-286.666l-420.363,-1568.81c-57.9,-216.125 70.538,-438.591 286.65,-496.508l783.159,-209.846c212.762,-57.012 431.683,66.584 493.679,276.634c-162.759,66.787 -277.517,226.891 -277.517,413.595l0,1182.19c0,246.612 200.229,446.837 446.842,446.837l51.025,0Zm-1329.05,-1484.14c83.054,-22.254 128.391,-103.696 97.741,-218.083c-30.65,-114.388 -110.637,-162.25 -193.691,-139.996c-82.559,22.121 -127.896,103.566 -97.246,217.954c30.65,114.383 110.637,162.246 193.196,140.125Zm-15.059,-56.196c-47.25,12.658 -90.466,-17.337 -112.987,-101.387c-22.521,-84.05 -0.092,-131.638 47.154,-144.296c47.746,-12.796 90.963,17.204 113.483,101.254c22.521,84.046 0.092,131.633 -47.65,144.429Zm225.963,-384.104c-71.117,19.054 -115.588,77.879 -97.067,147.008c17.459,65.15 79.879,93.2 148.509,74.813c38.791,-10.396 68.916,-31.259 83.275,-61.225l0.133,0.496c21.187,79.075 -9.163,130.92 -74.813,148.508c-24.366,6.529 -48.445,8.183 -70.675,0.817l-10.812,55.133c27.371,8.658 62.692,7.187 97.504,-2.138c100.963,-27.054 152.996,-111.358 121.017,-230.721c-29.984,-111.899 -102.079,-158.145 -197.071,-132.691Zm50.283,167.758c-42.271,11.329 -75.754,-4.221 -85.483,-40.525c-9.729,-36.304 11.992,-66.646 52.275,-77.437c46.254,-12.396 79.046,6.537 87.837,39.362c9.196,34.317 -12.854,67.409 -54.629,78.6Z" style="fill:#d4d4d4;"/><path d="M4118.14,1724.13l-0,1182.19c-0,166.771 -135.4,302.15 -302.15,302.15l-604.325,-0c-166.771,-0 -302.171,-135.379 -302.171,-302.15l-0,-1182.19c-0,-166.754 135.4,-302.154 302.171,-302.154l604.325,0c166.75,0 302.15,135.4 302.15,302.154Z" style="fill:#a3a3a3;"/></svg>